<mxfile host="app.diagrams.net" modified="2020-09-12T15:21:42.587Z" agent="5.0 (Macintosh; Intel Mac OS X 10_15_4) AppleWebKit/537.36 (KHTML, like Gecko) Chrome/85.0.4183.83 Safari/537.36" etag="4sQgrlv-_DhIMzj1R0Qu" version="13.6.10" type="github" pages="2">
  <diagram id="sdKFwLvwNyGhgGaRkgza" name="誕生">
    <mxGraphModel dx="1161" dy="773" grid="1" gridSize="10" guides="1" tooltips="1" connect="1" arrows="1" fold="1" page="1" pageScale="1" pageWidth="827" pageHeight="1169" math="0" shadow="0">
      <root>
        <mxCell id="0" />
        <mxCell id="1" parent="0" />
        <mxCell id="dcLhTKNCRthWgihFbN7n-1" value="&lt;font style=&quot;font-size: 20px&quot;&gt;原核生物&lt;/font&gt;" style="text;html=1;align=center;verticalAlign=middle;resizable=0;points=[];autosize=1;" parent="1" vertex="1">
          <mxGeometry x="364" y="20" width="100" height="20" as="geometry" />
        </mxCell>
        <mxCell id="n2eHayet1ZgRFSzuWHd--1" style="edgeStyle=orthogonalEdgeStyle;rounded=0;orthogonalLoop=1;jettySize=auto;html=1;entryX=0.471;entryY=-0.1;entryDx=0;entryDy=0;entryPerimeter=0;" edge="1" parent="1" source="dcLhTKNCRthWgihFbN7n-3" target="tf8xc0by1lTLq6sz3bfM-8">
          <mxGeometry relative="1" as="geometry">
            <mxPoint x="240" y="110" as="targetPoint" />
          </mxGeometry>
        </mxCell>
        <mxCell id="n2eHayet1ZgRFSzuWHd--6" style="edgeStyle=orthogonalEdgeStyle;rounded=0;orthogonalLoop=1;jettySize=auto;html=1;entryX=0.51;entryY=-0.2;entryDx=0;entryDy=0;entryPerimeter=0;" edge="1" parent="1" source="dcLhTKNCRthWgihFbN7n-3" target="dcLhTKNCRthWgihFbN7n-7">
          <mxGeometry relative="1" as="geometry">
            <mxPoint x="530" y="180" as="targetPoint" />
          </mxGeometry>
        </mxCell>
        <mxCell id="dcLhTKNCRthWgihFbN7n-3" value="&lt;span style=&quot;font-family: &amp;#34;arial&amp;#34; ; font-size: 13px&quot;&gt;核を持たない単細胞生物&lt;/span&gt;" style="text;html=1;align=center;verticalAlign=middle;resizable=0;points=[];autosize=1;" parent="1" vertex="1">
          <mxGeometry x="334" y="40" width="160" height="20" as="geometry" />
        </mxCell>
        <mxCell id="dcLhTKNCRthWgihFbN7n-4" value="&lt;font style=&quot;font-size: 20px&quot;&gt;原核生物&lt;/font&gt;" style="text;html=1;align=center;verticalAlign=middle;resizable=0;points=[];autosize=1;" parent="1" vertex="1">
          <mxGeometry x="29" y="220" width="100" height="20" as="geometry" />
        </mxCell>
        <mxCell id="n2eHayet1ZgRFSzuWHd--16" style="edgeStyle=orthogonalEdgeStyle;shape=link;rounded=0;orthogonalLoop=1;jettySize=auto;html=1;width=-4;" edge="1" parent="1">
          <mxGeometry relative="1" as="geometry">
            <mxPoint x="79" y="390" as="targetPoint" />
            <mxPoint x="79" y="280" as="sourcePoint" />
          </mxGeometry>
        </mxCell>
        <mxCell id="dcLhTKNCRthWgihFbN7n-5" value="&lt;span style=&quot;font-family: &amp;#34;arial&amp;#34; ; font-size: 13px&quot;&gt;二酸化炭素から&lt;br&gt;酸素と糖を生成&lt;/span&gt;" style="text;html=1;align=center;verticalAlign=top;resizable=0;points=[];autosize=1;" parent="1" vertex="1">
          <mxGeometry x="24" y="240" width="110" height="30" as="geometry" />
        </mxCell>
        <mxCell id="dcLhTKNCRthWgihFbN7n-7" value="&lt;font style=&quot;font-size: 20px&quot;&gt;真核生物&lt;/font&gt;" style="text;html=1;align=center;verticalAlign=middle;resizable=0;points=[];autosize=1;" parent="1" vertex="1">
          <mxGeometry x="479" y="220" width="100" height="20" as="geometry" />
        </mxCell>
        <mxCell id="dcLhTKNCRthWgihFbN7n-8" value="&lt;font face=&quot;arial&quot;&gt;&lt;span style=&quot;font-size: 13px&quot;&gt;DNAを守る核を持つ&lt;/span&gt;&lt;/font&gt;&lt;br&gt;&lt;font face=&quot;arial&quot;&gt;&lt;span style=&quot;font-size: 13px&quot;&gt;触手状の突起を持つ&lt;/span&gt;&lt;/font&gt;" style="text;html=1;align=center;verticalAlign=top;resizable=0;points=[];autosize=1;" parent="1" vertex="1">
          <mxGeometry x="464" y="240" width="130" height="30" as="geometry" />
        </mxCell>
        <mxCell id="n2eHayet1ZgRFSzuWHd--12" style="edgeStyle=orthogonalEdgeStyle;rounded=0;orthogonalLoop=1;jettySize=auto;html=1;entryX=-0.03;entryY=0.5;entryDx=0;entryDy=0;entryPerimeter=0;shape=link;" edge="1" parent="1" source="dcLhTKNCRthWgihFbN7n-9" target="dcLhTKNCRthWgihFbN7n-7">
          <mxGeometry relative="1" as="geometry" />
        </mxCell>
        <mxCell id="dcLhTKNCRthWgihFbN7n-9" value="&lt;font style=&quot;font-size: 20px&quot;&gt;原核生物&lt;/font&gt;" style="text;html=1;align=center;verticalAlign=middle;resizable=0;points=[];autosize=1;" parent="1" vertex="1">
          <mxGeometry x="214" y="220" width="100" height="20" as="geometry" />
        </mxCell>
        <mxCell id="dcLhTKNCRthWgihFbN7n-10" value="&lt;font face=&quot;arial&quot;&gt;&lt;span style=&quot;font-size: 13px&quot;&gt;酸素と糖から&lt;br&gt;二酸化炭素と水と&lt;br&gt;ATPエネルギーを生成&lt;br&gt;&lt;/span&gt;&lt;/font&gt;" style="text;html=1;align=center;verticalAlign=top;resizable=0;points=[];autosize=1;" parent="1" vertex="1">
          <mxGeometry x="194" y="240" width="140" height="50" as="geometry" />
        </mxCell>
        <mxCell id="n2eHayet1ZgRFSzuWHd--17" style="edgeStyle=orthogonalEdgeStyle;shape=link;rounded=0;orthogonalLoop=1;jettySize=auto;html=1;" edge="1" parent="1" source="dcLhTKNCRthWgihFbN7n-11">
          <mxGeometry relative="1" as="geometry">
            <mxPoint x="80" y="380" as="targetPoint" />
          </mxGeometry>
        </mxCell>
        <mxCell id="dcLhTKNCRthWgihFbN7n-11" value="&lt;font style=&quot;font-size: 20px&quot;&gt;ミトコンドリア&lt;/font&gt;" style="text;html=1;align=center;verticalAlign=middle;resizable=0;points=[];autosize=1;" parent="1" vertex="1">
          <mxGeometry x="320" y="370" width="160" height="20" as="geometry" />
        </mxCell>
        <mxCell id="dcLhTKNCRthWgihFbN7n-12" value="&lt;font face=&quot;arial&quot;&gt;&lt;span style=&quot;font-size: 13px&quot;&gt;呼吸と核を持つ&lt;br&gt;&lt;/span&gt;&lt;/font&gt;" style="text;html=1;align=center;verticalAlign=top;resizable=0;points=[];autosize=1;" parent="1" vertex="1">
          <mxGeometry x="345" y="390" width="110" height="20" as="geometry" />
        </mxCell>
        <mxCell id="dcLhTKNCRthWgihFbN7n-13" value="&lt;font style=&quot;font-size: 20px&quot;&gt;葉緑体を持つミトコンドリア&lt;/font&gt;" style="text;html=1;align=center;verticalAlign=middle;resizable=0;points=[];autosize=1;" parent="1" vertex="1">
          <mxGeometry x="64" y="470" width="280" height="20" as="geometry" />
        </mxCell>
        <mxCell id="dcLhTKNCRthWgihFbN7n-14" value="&lt;font face=&quot;arial&quot;&gt;&lt;span style=&quot;font-size: 13px&quot;&gt;呼吸と&lt;/span&gt;&lt;/font&gt;&lt;span style=&quot;font-family: &amp;#34;arial&amp;#34; ; font-size: 13px&quot;&gt;光合成と&lt;/span&gt;&lt;font face=&quot;arial&quot;&gt;&lt;span style=&quot;font-size: 13px&quot;&gt;核を持つ&lt;br&gt;&lt;/span&gt;&lt;/font&gt;" style="text;html=1;align=center;verticalAlign=top;resizable=0;points=[];autosize=1;" parent="1" vertex="1">
          <mxGeometry x="124" y="490" width="160" height="20" as="geometry" />
        </mxCell>
        <mxCell id="dcLhTKNCRthWgihFbN7n-18" value="&lt;span style=&quot;text-align: left ; text-indent: 0px ; display: inline ; float: none&quot;&gt;&lt;font face=&quot;arial&quot;&gt;&lt;span style=&quot;font-size: 20px&quot;&gt;原核生物が平和に生活していた。&lt;/span&gt;&lt;/font&gt;&lt;br&gt;&lt;font face=&quot;arial&quot;&gt;&lt;span style=&quot;font-size: 20px&quot;&gt;仲間を取り入れる真核生物が現れた。&lt;/span&gt;&lt;/font&gt;&lt;br&gt;&lt;font face=&quot;arial&quot;&gt;&lt;span style=&quot;font-size: 20px&quot;&gt;真核生物に対抗するため、酸素と糖を生成する&lt;/span&gt;&lt;/font&gt;&lt;br&gt;&lt;font face=&quot;arial&quot;&gt;&lt;span style=&quot;font-size: 20px&quot;&gt;シアノバクテリアが発生&lt;/span&gt;&lt;/font&gt;&lt;br&gt;&lt;br&gt;&lt;font face=&quot;arial&quot;&gt;&lt;span style=&quot;font-size: 20px&quot;&gt;しかし、真核生物はシアノバクテリアの仲間の原核生物を取り入れミトコンドリアに進化する。&lt;/span&gt;&lt;/font&gt;&lt;br&gt;&lt;br&gt;&lt;font face=&quot;arial&quot;&gt;&lt;span style=&quot;font-size: 20px&quot;&gt;やがてミトコンドリアはシアノバクテリアを取り入れ葉緑体を持つ。&lt;br&gt;&lt;br&gt;&lt;/span&gt;&lt;/font&gt;&lt;font face=&quot;arial&quot;&gt;&lt;span style=&quot;font-size: 20px&quot;&gt;全球凍結直後に大陸が風化しリンが大量に放出された。&lt;br&gt;&lt;/span&gt;&lt;span style=&quot;font-size: 20px&quot;&gt;それによりシアノバクテリアと酸素が大量発生する。&lt;br&gt;&lt;br&gt;&lt;/span&gt;&lt;/font&gt;&lt;span style=&quot;font-family: &amp;#34;arial&amp;#34; ; font-size: 20px&quot;&gt;真核生物と別れた&lt;/span&gt;&lt;span style=&quot;font-family: &amp;#34;arial&amp;#34; ; font-size: 20px&quot;&gt;古細菌は、生物に&lt;/span&gt;&lt;span style=&quot;font-family: &amp;#34;arial&amp;#34; ; font-size: 20px&quot;&gt;寄生し全身を白くさせる&lt;/span&gt;&lt;br style=&quot;font-family: &amp;#34;arial&amp;#34; ; font-size: 20px&quot;&gt;&lt;br&gt;&lt;/span&gt;" style="text;whiteSpace=wrap;html=1;" parent="1" vertex="1">
          <mxGeometry x="40" y="640" width="550" height="410" as="geometry" />
        </mxCell>
        <mxCell id="tf8xc0by1lTLq6sz3bfM-1" value="&lt;font style=&quot;font-size: 10px&quot;&gt;プロテオバクテリア&lt;/font&gt;" style="text;html=1;align=center;verticalAlign=middle;resizable=0;points=[];autosize=1;" parent="1" vertex="1">
          <mxGeometry x="214" y="200" width="100" height="20" as="geometry" />
        </mxCell>
        <mxCell id="tf8xc0by1lTLq6sz3bfM-2" value="&lt;font style=&quot;font-size: 10px&quot;&gt;シアノバクテリア&lt;/font&gt;" style="text;html=1;align=center;verticalAlign=middle;resizable=0;points=[];autosize=1;" parent="1" vertex="1">
          <mxGeometry x="34" y="200" width="90" height="20" as="geometry" />
        </mxCell>
        <mxCell id="n2eHayet1ZgRFSzuWHd--3" style="edgeStyle=orthogonalEdgeStyle;rounded=0;orthogonalLoop=1;jettySize=auto;html=1;entryX=0.389;entryY=0;entryDx=0;entryDy=0;entryPerimeter=0;" edge="1" parent="1" source="tf8xc0by1lTLq6sz3bfM-8" target="tf8xc0by1lTLq6sz3bfM-2">
          <mxGeometry relative="1" as="geometry">
            <mxPoint x="70" y="180" as="targetPoint" />
          </mxGeometry>
        </mxCell>
        <mxCell id="n2eHayet1ZgRFSzuWHd--5" style="edgeStyle=orthogonalEdgeStyle;rounded=0;orthogonalLoop=1;jettySize=auto;html=1;entryX=0.68;entryY=-0.05;entryDx=0;entryDy=0;entryPerimeter=0;" edge="1" parent="1" source="tf8xc0by1lTLq6sz3bfM-8" target="tf8xc0by1lTLq6sz3bfM-1">
          <mxGeometry relative="1" as="geometry">
            <mxPoint x="280" y="180" as="targetPoint" />
          </mxGeometry>
        </mxCell>
        <mxCell id="tf8xc0by1lTLq6sz3bfM-8" value="&lt;font style=&quot;font-size: 20px&quot;&gt;細菌(バクテリア)&lt;br&gt;&lt;/font&gt;" style="text;html=1;align=left;verticalAlign=middle;resizable=0;points=[];autosize=1;" parent="1" vertex="1">
          <mxGeometry x="90" y="120" width="170" height="20" as="geometry" />
        </mxCell>
        <mxCell id="tf8xc0by1lTLq6sz3bfM-10" value="&lt;font style=&quot;font-size: 20px&quot;&gt;古細菌&lt;/font&gt;" style="text;html=1;align=center;verticalAlign=middle;resizable=0;points=[];autosize=1;" parent="1" vertex="1">
          <mxGeometry x="694" y="220" width="80" height="20" as="geometry" />
        </mxCell>
        <mxCell id="tf8xc0by1lTLq6sz3bfM-11" value="&lt;font face=&quot;arial&quot;&gt;&lt;span style=&quot;font-size: 13px&quot;&gt;意識を乗っ取る&lt;br&gt;&lt;/span&gt;&lt;/font&gt;" style="text;html=1;align=center;verticalAlign=top;resizable=0;points=[];autosize=1;" parent="1" vertex="1">
          <mxGeometry x="679" y="240" width="110" height="20" as="geometry" />
        </mxCell>
        <mxCell id="tf8xc0by1lTLq6sz3bfM-12" value="&lt;font style=&quot;font-size: 10px&quot;&gt;寄生体&lt;/font&gt;" style="text;html=1;align=center;verticalAlign=middle;resizable=0;points=[];autosize=1;" parent="1" vertex="1">
          <mxGeometry x="709" y="200" width="50" height="20" as="geometry" />
        </mxCell>
        <mxCell id="agNdZaxh8USDzSz3yvO0-16" value="" style="edgeStyle=orthogonalEdgeStyle;rounded=0;orthogonalLoop=1;jettySize=auto;html=1;entryX=0.5;entryY=0;entryDx=0;entryDy=0;" edge="1" parent="1" source="agNdZaxh8USDzSz3yvO0-14">
          <mxGeometry relative="1" as="geometry">
            <mxPoint x="370" y="525" as="targetPoint" />
          </mxGeometry>
        </mxCell>
        <mxCell id="n2eHayet1ZgRFSzuWHd--10" value="" style="endArrow=none;html=1;" edge="1" parent="1">
          <mxGeometry width="50" height="50" relative="1" as="geometry">
            <mxPoint x="529" y="140" as="sourcePoint" />
            <mxPoint x="730" y="140" as="targetPoint" />
          </mxGeometry>
        </mxCell>
        <mxCell id="n2eHayet1ZgRFSzuWHd--11" value="" style="endArrow=classic;html=1;entryX=0.46;entryY=-0.15;entryDx=0;entryDy=0;entryPerimeter=0;" edge="1" parent="1" target="tf8xc0by1lTLq6sz3bfM-12">
          <mxGeometry width="50" height="50" relative="1" as="geometry">
            <mxPoint x="730" y="140" as="sourcePoint" />
            <mxPoint x="780" y="90" as="targetPoint" />
          </mxGeometry>
        </mxCell>
        <mxCell id="n2eHayet1ZgRFSzuWHd--14" value="" style="endArrow=classic;html=1;" edge="1" parent="1">
          <mxGeometry width="50" height="50" relative="1" as="geometry">
            <mxPoint x="400" y="230" as="sourcePoint" />
            <mxPoint x="400" y="360" as="targetPoint" />
          </mxGeometry>
        </mxCell>
        <mxCell id="n2eHayet1ZgRFSzuWHd--18" value="" style="endArrow=classic;html=1;entryX=0.471;entryY=-0.15;entryDx=0;entryDy=0;entryPerimeter=0;" edge="1" parent="1" target="dcLhTKNCRthWgihFbN7n-13">
          <mxGeometry width="50" height="50" relative="1" as="geometry">
            <mxPoint x="194" y="380" as="sourcePoint" />
            <mxPoint x="244" y="330" as="targetPoint" />
          </mxGeometry>
        </mxCell>
      </root>
    </mxGraphModel>
  </diagram>
  <diagram id="8yZFWJplafrmQKo9IH1-" name="エディアカラ紀">
    <mxGraphModel dx="1161" dy="773" grid="1" gridSize="10" guides="1" tooltips="1" connect="1" arrows="1" fold="1" page="1" pageScale="1" pageWidth="827" pageHeight="1169" math="0" shadow="0">
      <root>
        <mxCell id="IXbR1RIGrK287yiq5gu8-0" />
        <mxCell id="IXbR1RIGrK287yiq5gu8-1" parent="IXbR1RIGrK287yiq5gu8-0" />
      </root>
    </mxGraphModel>
  </diagram>
</mxfile>
